<?xml version='1.0' encoding='iso-8859-1'?>
<svg version="1.1" xmlns="http://www.w3.org/2000/svg" viewBox="0 0 60.004 60.004" xmlns:xlink="http://www.w3.org/1999/xlink" enable-background="new 0 0 60.004 60.004">
  <g>
    <g>
      <path d="m40.712,19.293c-0.408-0.408-1.07-0.408-1.478,0l-17.91,17.911c-0.408,0.408-0.408,1.07 0,1.478 0.408,0.408 1.07,0.408 1.478,0l17.911-17.911c0.407-0.408 0.407-1.07-0.001-1.478z"/>
    </g>
  </g>
  <g>
    <g>
      <path d="m10.046,39.787c-0.016,0.072-0.044,0.14-0.044,0.216v0.239c0,0.026 0,0.051 0,0.077v8.684c0,0.138 0.028,0.27 0.079,0.389 0.101,0.239 0.293,0.431 0.532,0.532 0.12,0.051 0.251,0.079 0.389,0.079h9c0.15,0 0.289-0.038 0.417-0.097 0.774-0.142 1.515-0.508 2.114-1.107l36.266-36.266c1.568-1.568 1.568-4.111 0-5.679l-5.679-5.679c-1.568-1.568-4.111-1.568-5.679,0l-36.267,36.267c-0.658,0.658-1.023,1.488-1.128,2.345zm31.008-29.404c0.05,0.141 0.125,0.275 0.238,0.387l3.911,3.911c0.408,0.408 1.07,0.408 1.478,0 0.408-0.408 0.408-1.07 0-1.478l-3.911-3.911c-0.113-0.113-0.247-0.187-0.387-0.238l6.497-6.497c0.786-0.786 2.06-0.786 2.846,0l5.691,5.691c0.786,0.786 0.786,2.06 0,2.846l-35.923,35.924-8.537-8.537 28.097-28.098zm-29.052,30.098l7.522,7.522h-7.522v-7.522zm20-39.477c0-0.552-0.448-1-1-1h-30c-0.552,0-1,0.448-1,1v58c0,0.552 0.448,1 1,1 0.552,0 1-0.448 1-1v-57h29c0.552,2.22045e-15 1-0.448 1-1zm27,27c-0.552,0-1,0.448-1,1v29h-51c-0.552,0-1,0.448-1,1 0,0.552 0.448,1 1,1h52c0.552,0 1-0.448 1-1v-30c0-0.553-0.448-1-1-1z"/>
    </g>
  </g>
</svg>
